<mxfile host="app.diagrams.net" modified="2023-02-03T12:19:54.305Z" agent="5.0 (Windows NT 10.0; Win64; x64) AppleWebKit/537.36 (KHTML, like Gecko) Chrome/109.0.0.0 Safari/537.36" etag="hgGgHrtMto9l0SB2ri-b" version="20.8.13" type="github">
  <diagram id="C5RBs43oDa-KdzZeNtuy" name="Page-1">
    <mxGraphModel dx="1434" dy="1933" grid="1" gridSize="10" guides="1" tooltips="1" connect="1" arrows="1" fold="1" page="1" pageScale="1" pageWidth="827" pageHeight="1169" math="0" shadow="0">
      <root>
        <mxCell id="WIyWlLk6GJQsqaUBKTNV-0" />
        <mxCell id="WIyWlLk6GJQsqaUBKTNV-1" parent="WIyWlLk6GJQsqaUBKTNV-0" />
        <mxCell id="Vh_eDv6WG60vxoZglGoL-0" value="System" style="shape=umlFrame;whiteSpace=wrap;html=1;width=120;height=30;boundedLbl=1;verticalAlign=middle;align=left;spacingLeft=5;fillColor=none;strokeColor=#6c8ebf;" vertex="1" parent="WIyWlLk6GJQsqaUBKTNV-1">
          <mxGeometry x="10" y="-510" width="1130" height="220" as="geometry" />
        </mxCell>
        <mxCell id="Vh_eDv6WG60vxoZglGoL-1" value="User" style="shape=umlFrame;whiteSpace=wrap;html=1;width=120;height=30;boundedLbl=1;verticalAlign=middle;align=left;spacingLeft=5;fillColor=none;strokeColor=#6c8ebf;" vertex="1" parent="WIyWlLk6GJQsqaUBKTNV-1">
          <mxGeometry x="10" y="-1080" width="1130" height="570" as="geometry" />
        </mxCell>
        <mxCell id="Vh_eDv6WG60vxoZglGoL-2" value="" style="ellipse;html=1;shape=startState;fillColor=#000000;strokeColor=#ff0000;" vertex="1" parent="WIyWlLk6GJQsqaUBKTNV-1">
          <mxGeometry x="70" y="-1005" width="30" height="30" as="geometry" />
        </mxCell>
        <mxCell id="Vh_eDv6WG60vxoZglGoL-3" value="" style="edgeStyle=orthogonalEdgeStyle;html=1;verticalAlign=bottom;endArrow=open;endSize=8;strokeColor=#ff0000;rounded=0;entryX=0;entryY=0.5;entryDx=0;entryDy=0;" edge="1" parent="WIyWlLk6GJQsqaUBKTNV-1" source="Vh_eDv6WG60vxoZglGoL-2" target="Vh_eDv6WG60vxoZglGoL-5">
          <mxGeometry relative="1" as="geometry">
            <mxPoint x="85" y="-915" as="targetPoint" />
          </mxGeometry>
        </mxCell>
        <mxCell id="Vh_eDv6WG60vxoZglGoL-21" style="edgeStyle=orthogonalEdgeStyle;rounded=1;orthogonalLoop=1;jettySize=auto;html=1;entryX=0.5;entryY=0;entryDx=0;entryDy=0;" edge="1" parent="WIyWlLk6GJQsqaUBKTNV-1" source="Vh_eDv6WG60vxoZglGoL-5" target="Vh_eDv6WG60vxoZglGoL-17">
          <mxGeometry relative="1" as="geometry" />
        </mxCell>
        <mxCell id="Vh_eDv6WG60vxoZglGoL-5" value="User clicks to &quot;Next&quot; button on Credit Check phase" style="whiteSpace=wrap;html=1;fillColor=#dae8fc;strokeColor=#6c8ebf;rounded=1;" vertex="1" parent="WIyWlLk6GJQsqaUBKTNV-1">
          <mxGeometry x="210" y="-1020" width="120" height="60" as="geometry" />
        </mxCell>
        <mxCell id="Vh_eDv6WG60vxoZglGoL-24" style="edgeStyle=orthogonalEdgeStyle;rounded=1;orthogonalLoop=1;jettySize=auto;html=1;entryX=0;entryY=0.5;entryDx=0;entryDy=0;" edge="1" parent="WIyWlLk6GJQsqaUBKTNV-1" source="Vh_eDv6WG60vxoZglGoL-13" target="Vh_eDv6WG60vxoZglGoL-23">
          <mxGeometry relative="1" as="geometry" />
        </mxCell>
        <mxCell id="Vh_eDv6WG60vxoZglGoL-25" value="No" style="edgeLabel;html=1;align=center;verticalAlign=middle;resizable=0;points=[];" vertex="1" connectable="0" parent="Vh_eDv6WG60vxoZglGoL-24">
          <mxGeometry x="0.2453" y="-1" relative="1" as="geometry">
            <mxPoint x="-10" y="-1" as="offset" />
          </mxGeometry>
        </mxCell>
        <mxCell id="Vh_eDv6WG60vxoZglGoL-28" style="edgeStyle=orthogonalEdgeStyle;rounded=1;orthogonalLoop=1;jettySize=auto;html=1;entryX=0.5;entryY=0;entryDx=0;entryDy=0;" edge="1" parent="WIyWlLk6GJQsqaUBKTNV-1" source="Vh_eDv6WG60vxoZglGoL-13" target="Vh_eDv6WG60vxoZglGoL-27">
          <mxGeometry relative="1" as="geometry" />
        </mxCell>
        <mxCell id="Vh_eDv6WG60vxoZglGoL-29" value="Yes" style="edgeLabel;html=1;align=center;verticalAlign=middle;resizable=0;points=[];" vertex="1" connectable="0" parent="Vh_eDv6WG60vxoZglGoL-28">
          <mxGeometry x="-0.2698" y="-1" relative="1" as="geometry">
            <mxPoint as="offset" />
          </mxGeometry>
        </mxCell>
        <mxCell id="Vh_eDv6WG60vxoZglGoL-13" value="Does the user &lt;br&gt;want to change the &lt;br&gt;billing address?" style="rhombus;whiteSpace=wrap;html=1;fillColor=#e1d5e7;strokeColor=#9673a6;" vertex="1" parent="WIyWlLk6GJQsqaUBKTNV-1">
          <mxGeometry x="414" y="-1065" width="150" height="150" as="geometry" />
        </mxCell>
        <mxCell id="Vh_eDv6WG60vxoZglGoL-14" style="edgeStyle=orthogonalEdgeStyle;rounded=0;orthogonalLoop=1;jettySize=auto;html=1;entryX=0;entryY=0.5;entryDx=0;entryDy=0;endArrow=open;endFill=0;" edge="1" parent="WIyWlLk6GJQsqaUBKTNV-1" source="Vh_eDv6WG60vxoZglGoL-15" target="Vh_eDv6WG60vxoZglGoL-18">
          <mxGeometry relative="1" as="geometry" />
        </mxCell>
        <mxCell id="Vh_eDv6WG60vxoZglGoL-15" value="Customer Search page opens" style="whiteSpace=wrap;html=1;fillColor=#dae8fc;strokeColor=#6c8ebf;rounded=1;" vertex="1" parent="WIyWlLk6GJQsqaUBKTNV-1">
          <mxGeometry x="850" y="-470" width="120" height="60" as="geometry" />
        </mxCell>
        <mxCell id="Vh_eDv6WG60vxoZglGoL-22" style="edgeStyle=orthogonalEdgeStyle;rounded=1;orthogonalLoop=1;jettySize=auto;html=1;entryX=0;entryY=0.5;entryDx=0;entryDy=0;" edge="1" parent="WIyWlLk6GJQsqaUBKTNV-1" source="Vh_eDv6WG60vxoZglGoL-17" target="Vh_eDv6WG60vxoZglGoL-13">
          <mxGeometry relative="1" as="geometry" />
        </mxCell>
        <mxCell id="Vh_eDv6WG60vxoZglGoL-17" value="System, shows Payment Method Selection section" style="whiteSpace=wrap;html=1;fillColor=#dae8fc;strokeColor=#6c8ebf;rounded=1;" vertex="1" parent="WIyWlLk6GJQsqaUBKTNV-1">
          <mxGeometry x="210" y="-470" width="120" height="60" as="geometry" />
        </mxCell>
        <mxCell id="Vh_eDv6WG60vxoZglGoL-18" value="" style="ellipse;html=1;shape=endState;fillColor=#000000;strokeColor=#ff0000;" vertex="1" parent="WIyWlLk6GJQsqaUBKTNV-1">
          <mxGeometry x="1065" y="-455" width="30" height="30" as="geometry" />
        </mxCell>
        <mxCell id="Vh_eDv6WG60vxoZglGoL-19" value="Order Review" style="rounded=0;whiteSpace=wrap;html=1;fillColor=none;strokeColor=#6c8ebf;" vertex="1" parent="WIyWlLk6GJQsqaUBKTNV-1">
          <mxGeometry x="20" y="-1110" width="120" height="30" as="geometry" />
        </mxCell>
        <mxCell id="Vh_eDv6WG60vxoZglGoL-23" value="User clicks to &quot;Select this billing address&quot; button" style="whiteSpace=wrap;html=1;fillColor=#dae8fc;strokeColor=#6c8ebf;rounded=1;" vertex="1" parent="WIyWlLk6GJQsqaUBKTNV-1">
          <mxGeometry x="670" y="-1020" width="120" height="60" as="geometry" />
        </mxCell>
        <mxCell id="Vh_eDv6WG60vxoZglGoL-31" style="edgeStyle=orthogonalEdgeStyle;rounded=1;orthogonalLoop=1;jettySize=auto;html=1;entryX=0;entryY=0.5;entryDx=0;entryDy=0;" edge="1" parent="WIyWlLk6GJQsqaUBKTNV-1" source="Vh_eDv6WG60vxoZglGoL-27" target="Vh_eDv6WG60vxoZglGoL-30">
          <mxGeometry relative="1" as="geometry" />
        </mxCell>
        <mxCell id="Vh_eDv6WG60vxoZglGoL-32" value="No" style="edgeLabel;html=1;align=center;verticalAlign=middle;resizable=0;points=[];" vertex="1" connectable="0" parent="Vh_eDv6WG60vxoZglGoL-31">
          <mxGeometry x="0.2131" y="-2" relative="1" as="geometry">
            <mxPoint x="-9" y="-2" as="offset" />
          </mxGeometry>
        </mxCell>
        <mxCell id="Vh_eDv6WG60vxoZglGoL-38" style="edgeStyle=orthogonalEdgeStyle;rounded=1;orthogonalLoop=1;jettySize=auto;html=1;entryX=0.5;entryY=0;entryDx=0;entryDy=0;" edge="1" parent="WIyWlLk6GJQsqaUBKTNV-1" source="Vh_eDv6WG60vxoZglGoL-27" target="Vh_eDv6WG60vxoZglGoL-35">
          <mxGeometry relative="1" as="geometry" />
        </mxCell>
        <mxCell id="Vh_eDv6WG60vxoZglGoL-39" value="Yes" style="edgeLabel;html=1;align=center;verticalAlign=middle;resizable=0;points=[];" vertex="1" connectable="0" parent="Vh_eDv6WG60vxoZglGoL-38">
          <mxGeometry x="0.22" relative="1" as="geometry">
            <mxPoint y="-7" as="offset" />
          </mxGeometry>
        </mxCell>
        <mxCell id="Vh_eDv6WG60vxoZglGoL-27" value="Does the user &lt;br&gt;want to add a new address?" style="rhombus;whiteSpace=wrap;html=1;fillColor=#e1d5e7;strokeColor=#9673a6;" vertex="1" parent="WIyWlLk6GJQsqaUBKTNV-1">
          <mxGeometry x="414" y="-870" width="150" height="150" as="geometry" />
        </mxCell>
        <mxCell id="Vh_eDv6WG60vxoZglGoL-30" value="User selects one of the none selected existing addresses" style="whiteSpace=wrap;html=1;fillColor=#dae8fc;strokeColor=#6c8ebf;rounded=1;" vertex="1" parent="WIyWlLk6GJQsqaUBKTNV-1">
          <mxGeometry x="670" y="-825" width="120" height="60" as="geometry" />
        </mxCell>
        <mxCell id="Vh_eDv6WG60vxoZglGoL-34" style="edgeStyle=orthogonalEdgeStyle;rounded=1;orthogonalLoop=1;jettySize=auto;html=1;entryX=0.5;entryY=1;entryDx=0;entryDy=0;" edge="1" parent="WIyWlLk6GJQsqaUBKTNV-1" source="Vh_eDv6WG60vxoZglGoL-33" target="Vh_eDv6WG60vxoZglGoL-23">
          <mxGeometry relative="1" as="geometry">
            <Array as="points">
              <mxPoint x="820" y="-340" />
              <mxPoint x="820" y="-910" />
              <mxPoint x="730" y="-910" />
            </Array>
          </mxGeometry>
        </mxCell>
        <mxCell id="Vh_eDv6WG60vxoZglGoL-33" value="System, shows the selected address with an outline and a check box" style="whiteSpace=wrap;html=1;fillColor=#dae8fc;strokeColor=#6c8ebf;rounded=1;" vertex="1" parent="WIyWlLk6GJQsqaUBKTNV-1">
          <mxGeometry x="670" y="-370" width="120" height="60" as="geometry" />
        </mxCell>
        <mxCell id="Vh_eDv6WG60vxoZglGoL-40" style="edgeStyle=orthogonalEdgeStyle;rounded=1;orthogonalLoop=1;jettySize=auto;html=1;entryX=0.5;entryY=0;entryDx=0;entryDy=0;" edge="1" parent="WIyWlLk6GJQsqaUBKTNV-1" source="Vh_eDv6WG60vxoZglGoL-35" target="Vh_eDv6WG60vxoZglGoL-36">
          <mxGeometry relative="1" as="geometry" />
        </mxCell>
        <mxCell id="Vh_eDv6WG60vxoZglGoL-35" value="User clicks to &quot;Add New Address&quot; button" style="whiteSpace=wrap;html=1;fillColor=#dae8fc;strokeColor=#6c8ebf;rounded=1;" vertex="1" parent="WIyWlLk6GJQsqaUBKTNV-1">
          <mxGeometry x="429" y="-660" width="120" height="60" as="geometry" />
        </mxCell>
        <mxCell id="Vh_eDv6WG60vxoZglGoL-41" style="edgeStyle=orthogonalEdgeStyle;rounded=1;orthogonalLoop=1;jettySize=auto;html=1;entryX=0;entryY=0.5;entryDx=0;entryDy=0;" edge="1" parent="WIyWlLk6GJQsqaUBKTNV-1" source="Vh_eDv6WG60vxoZglGoL-36" target="Vh_eDv6WG60vxoZglGoL-37">
          <mxGeometry relative="1" as="geometry" />
        </mxCell>
        <mxCell id="Vh_eDv6WG60vxoZglGoL-36" value="System opens add new address pop-up" style="whiteSpace=wrap;html=1;fillColor=#dae8fc;strokeColor=#6c8ebf;rounded=1;" vertex="1" parent="WIyWlLk6GJQsqaUBKTNV-1">
          <mxGeometry x="429" y="-470" width="120" height="60" as="geometry" />
        </mxCell>
        <mxCell id="Vh_eDv6WG60vxoZglGoL-45" style="edgeStyle=orthogonalEdgeStyle;rounded=1;orthogonalLoop=1;jettySize=auto;html=1;entryX=0.5;entryY=0;entryDx=0;entryDy=0;" edge="1" parent="WIyWlLk6GJQsqaUBKTNV-1" source="Vh_eDv6WG60vxoZglGoL-37" target="Vh_eDv6WG60vxoZglGoL-33">
          <mxGeometry relative="1" as="geometry">
            <Array as="points">
              <mxPoint x="730" y="-540" />
              <mxPoint x="810" y="-540" />
              <mxPoint x="810" y="-390" />
              <mxPoint x="730" y="-390" />
            </Array>
          </mxGeometry>
        </mxCell>
        <mxCell id="Vh_eDv6WG60vxoZglGoL-37" value="User fills the required areas and clicks to &quot;Save&quot;button" style="whiteSpace=wrap;html=1;fillColor=#dae8fc;strokeColor=#6c8ebf;rounded=1;" vertex="1" parent="WIyWlLk6GJQsqaUBKTNV-1">
          <mxGeometry x="670" y="-660" width="120" height="60" as="geometry" />
        </mxCell>
        <mxCell id="Vh_eDv6WG60vxoZglGoL-44" style="edgeStyle=orthogonalEdgeStyle;rounded=1;orthogonalLoop=1;jettySize=auto;html=1;entryX=0;entryY=0.5;entryDx=0;entryDy=0;" edge="1" parent="WIyWlLk6GJQsqaUBKTNV-1" source="Vh_eDv6WG60vxoZglGoL-42" target="Vh_eDv6WG60vxoZglGoL-33">
          <mxGeometry relative="1" as="geometry">
            <Array as="points">
              <mxPoint x="650" y="-440" />
              <mxPoint x="650" y="-340" />
            </Array>
          </mxGeometry>
        </mxCell>
        <mxCell id="Vh_eDv6WG60vxoZglGoL-42" value="System closes the pop-up and adds the new address to the address info area as selected" style="whiteSpace=wrap;html=1;fillColor=#dae8fc;strokeColor=#6c8ebf;rounded=1;" vertex="1" parent="WIyWlLk6GJQsqaUBKTNV-1">
          <mxGeometry x="670" y="-480" width="120" height="80" as="geometry" />
        </mxCell>
      </root>
    </mxGraphModel>
  </diagram>
</mxfile>
